<mxfile host="app.diagrams.net" modified="2021-02-22T13:37:17.079Z" agent="5.0 (Windows NT 10.0; Win64; x64) AppleWebKit/537.36 (KHTML, like Gecko) Chrome/88.0.4324.182 Safari/537.36" etag="uWvdpg43DXf_sx889QBf" version="14.4.2" type="github">
  <diagram id="1kLxRO07t6UzXjjte-p_" name="Page-1">
    <mxGraphModel dx="2249" dy="762" grid="1" gridSize="10" guides="1" tooltips="1" connect="1" arrows="1" fold="1" page="1" pageScale="1" pageWidth="827" pageHeight="1169" math="0" shadow="0">
      <root>
        <mxCell id="0" />
        <mxCell id="1" parent="0" />
        <mxCell id="nwLfE2iPsKuPv9BvQC6c-1" value="&lt;div class=&quot;paragraph&quot; style=&quot;box-sizing: inherit; margin-top: 0px; color: rgb(0, 0, 0); font-family: &amp;quot;ys text&amp;quot;, arial, helvetica, sans-serif; font-size: 16px; font-style: normal; font-weight: 400; letter-spacing: normal; text-indent: 0px; text-transform: none; word-spacing: 0px; background-color: rgb(255, 255, 255);&quot;&gt;Заказчик решил, что посетителей с высшим образованием можно пускать на сайт вне зависимости от возраста.&lt;/div&gt;&lt;div class=&quot;paragraph&quot; style=&quot;box-sizing: inherit; margin-bottom: 0px; color: rgb(0, 0, 0); font-family: &amp;quot;ys text&amp;quot;, arial, helvetica, sans-serif; font-size: 16px; font-style: normal; font-weight: 400; letter-spacing: normal; text-indent: 0px; text-transform: none; word-spacing: 0px; background-color: rgb(255, 255, 255);&quot;&gt;Совмести условия так, чтобы аудитория от 18 до 50 лет увидела сообщение «Всё в порядке». Если возраст посетителя менее 18 лет и более 50 лет, но у него есть высшее образование, нужно показать «Добро пожаловать». Остальным посетителям надо показать — «Ты не пройдёшь!».&lt;/div&gt;" style="text;whiteSpace=wrap;html=1;" vertex="1" parent="1">
          <mxGeometry x="440" y="30" width="370" height="200" as="geometry" />
        </mxCell>
        <mxCell id="nwLfE2iPsKuPv9BvQC6c-8" style="edgeStyle=orthogonalEdgeStyle;rounded=0;orthogonalLoop=1;jettySize=auto;html=1;exitX=0.5;exitY=1;exitDx=0;exitDy=0;entryX=0.5;entryY=0;entryDx=0;entryDy=0;" edge="1" parent="1" source="nwLfE2iPsKuPv9BvQC6c-2" target="nwLfE2iPsKuPv9BvQC6c-3">
          <mxGeometry relative="1" as="geometry" />
        </mxCell>
        <mxCell id="nwLfE2iPsKuPv9BvQC6c-10" style="edgeStyle=orthogonalEdgeStyle;rounded=0;orthogonalLoop=1;jettySize=auto;html=1;exitX=0.5;exitY=1;exitDx=0;exitDy=0;" edge="1" parent="1" source="nwLfE2iPsKuPv9BvQC6c-2" target="nwLfE2iPsKuPv9BvQC6c-5">
          <mxGeometry relative="1" as="geometry" />
        </mxCell>
        <mxCell id="nwLfE2iPsKuPv9BvQC6c-2" value="Start" style="rounded=1;whiteSpace=wrap;html=1;" vertex="1" parent="1">
          <mxGeometry x="50" y="30" width="60" height="30" as="geometry" />
        </mxCell>
        <mxCell id="nwLfE2iPsKuPv9BvQC6c-9" value="yes" style="edgeStyle=orthogonalEdgeStyle;rounded=0;orthogonalLoop=1;jettySize=auto;html=1;exitX=0.5;exitY=1;exitDx=0;exitDy=0;entryX=0.5;entryY=0;entryDx=0;entryDy=0;" edge="1" parent="1" source="nwLfE2iPsKuPv9BvQC6c-3" target="nwLfE2iPsKuPv9BvQC6c-4">
          <mxGeometry relative="1" as="geometry" />
        </mxCell>
        <mxCell id="nwLfE2iPsKuPv9BvQC6c-14" value="no" style="edgeStyle=orthogonalEdgeStyle;rounded=0;orthogonalLoop=1;jettySize=auto;html=1;exitX=1;exitY=0.5;exitDx=0;exitDy=0;" edge="1" parent="1" source="nwLfE2iPsKuPv9BvQC6c-3" target="nwLfE2iPsKuPv9BvQC6c-7">
          <mxGeometry relative="1" as="geometry" />
        </mxCell>
        <mxCell id="nwLfE2iPsKuPv9BvQC6c-3" value="18-50" style="rhombus;whiteSpace=wrap;html=1;" vertex="1" parent="1">
          <mxGeometry x="-100" y="110" width="80" height="80" as="geometry" />
        </mxCell>
        <mxCell id="nwLfE2iPsKuPv9BvQC6c-16" style="edgeStyle=orthogonalEdgeStyle;rounded=0;orthogonalLoop=1;jettySize=auto;html=1;exitX=0.5;exitY=1;exitDx=0;exitDy=0;entryX=0;entryY=0.75;entryDx=0;entryDy=0;" edge="1" parent="1" source="nwLfE2iPsKuPv9BvQC6c-4" target="nwLfE2iPsKuPv9BvQC6c-15">
          <mxGeometry relative="1" as="geometry" />
        </mxCell>
        <mxCell id="nwLfE2iPsKuPv9BvQC6c-4" value="All good" style="rounded=0;whiteSpace=wrap;html=1;" vertex="1" parent="1">
          <mxGeometry x="-220" y="260" width="120" height="60" as="geometry" />
        </mxCell>
        <mxCell id="nwLfE2iPsKuPv9BvQC6c-11" value="yes" style="edgeStyle=orthogonalEdgeStyle;rounded=0;orthogonalLoop=1;jettySize=auto;html=1;exitX=0.5;exitY=1;exitDx=0;exitDy=0;entryX=0.5;entryY=0;entryDx=0;entryDy=0;" edge="1" parent="1" source="nwLfE2iPsKuPv9BvQC6c-5" target="nwLfE2iPsKuPv9BvQC6c-6">
          <mxGeometry relative="1" as="geometry" />
        </mxCell>
        <mxCell id="nwLfE2iPsKuPv9BvQC6c-13" value="no" style="edgeStyle=orthogonalEdgeStyle;rounded=0;orthogonalLoop=1;jettySize=auto;html=1;exitX=0;exitY=0.5;exitDx=0;exitDy=0;entryX=0.75;entryY=0;entryDx=0;entryDy=0;" edge="1" parent="1" source="nwLfE2iPsKuPv9BvQC6c-5" target="nwLfE2iPsKuPv9BvQC6c-7">
          <mxGeometry relative="1" as="geometry" />
        </mxCell>
        <mxCell id="nwLfE2iPsKuPv9BvQC6c-5" value="&amp;lt; 18 &amp;amp;&amp;amp; &amp;gt; 50 &amp;amp;&amp;amp;&lt;br&gt;education == true" style="rhombus;whiteSpace=wrap;html=1;" vertex="1" parent="1">
          <mxGeometry x="140" y="110" width="140" height="130" as="geometry" />
        </mxCell>
        <mxCell id="nwLfE2iPsKuPv9BvQC6c-17" style="edgeStyle=orthogonalEdgeStyle;rounded=0;orthogonalLoop=1;jettySize=auto;html=1;exitX=0.5;exitY=1;exitDx=0;exitDy=0;entryX=1;entryY=0.75;entryDx=0;entryDy=0;" edge="1" parent="1" source="nwLfE2iPsKuPv9BvQC6c-6" target="nwLfE2iPsKuPv9BvQC6c-15">
          <mxGeometry relative="1" as="geometry" />
        </mxCell>
        <mxCell id="nwLfE2iPsKuPv9BvQC6c-6" value="Welcome" style="rounded=0;whiteSpace=wrap;html=1;" vertex="1" parent="1">
          <mxGeometry x="150" y="330" width="120" height="60" as="geometry" />
        </mxCell>
        <mxCell id="nwLfE2iPsKuPv9BvQC6c-18" style="edgeStyle=orthogonalEdgeStyle;rounded=0;orthogonalLoop=1;jettySize=auto;html=1;exitX=0.5;exitY=1;exitDx=0;exitDy=0;" edge="1" parent="1" source="nwLfE2iPsKuPv9BvQC6c-7" target="nwLfE2iPsKuPv9BvQC6c-15">
          <mxGeometry relative="1" as="geometry" />
        </mxCell>
        <mxCell id="nwLfE2iPsKuPv9BvQC6c-7" value="you shall not pass!" style="rounded=0;whiteSpace=wrap;html=1;" vertex="1" parent="1">
          <mxGeometry x="-50" y="390" width="120" height="60" as="geometry" />
        </mxCell>
        <mxCell id="nwLfE2iPsKuPv9BvQC6c-15" value="end" style="rounded=1;whiteSpace=wrap;html=1;" vertex="1" parent="1">
          <mxGeometry x="50" y="540" width="60" height="30" as="geometry" />
        </mxCell>
      </root>
    </mxGraphModel>
  </diagram>
</mxfile>
